# xmcd
#
# Track frame offsets:
#	150
#	13546
#	26477
#	39012
#	50067
#	64051
#	77180
#	89813
#	101943
#	114213
#	127507
#	137846
#	150293
#	163301
#	176018
#	188412
#	201123
#	213457
#	226298
#	239144
#
# Disc length: 3343 seconds
# Revision: 0
# Processed by: cddbd v1.5.2PL0 Copyright (c) Steve Scherf et al.
# Submitted via: dBpowerAMP V12.0
#
DISCID=0a0d0d14
DTITLE=Roy Acuff - The Essential Recordings CD1
DYEAR=2016
DGENRE=Country
TTITLE0=Great Speckle Bird
TTITLE1=The Wabash Cannonball
TTITLE2=The Freight Train Blues
TTITLE3=Steamboat Whistle Blues
TTITLE4=You're The Only Star In My Blue Heaven
TTITLE5=Steel Guitar Blues
TTITLE6=Beautiful Brown Eyes
TTITLE7=Old Age Pension Cheque
TTITLE8=I'm Building A Home
TTITLE9=When I Lay My Burden Down
TTITLE10=Will The Circle Be Unbroken
TTITLE11=The Streamlined Cannonball
TTITLE12=Mule Skinner Blues
TTITLE13=The Precious Jewel
TTITLE14=Be Honest With Me
TTITLE15=Worried Mind
TTITLE16=Lying Woman Blues
TTITLE17=It Won't Be Long
TTITLE18=Night Train To Memphis
TTITLE19=Low And Lonely
EXTD=
EXTT0=
EXTT1=
EXTT2=
EXTT3=
EXTT4=
EXTT5=
EXTT6=
EXTT7=
EXTT8=
EXTT9=
EXTT10=
EXTT11=
EXTT12=
EXTT13=
EXTT14=
EXTT15=
EXTT16=
EXTT17=
EXTT18=
EXTT19=
PLAYORDER=
